<svg width="19" height="10" viewBox="0 0 19 10" fill="none" xmlns="http://www.w3.org/2000/svg">
<path d="M6.50772 8.53307L0.387723 2.41307C0.139389 2.16325 0 1.82532 0 1.47307C0 1.12082 0.139389 0.782886 0.387723 0.53307C0.511674 0.408098 0.659142 0.308906 0.821621 0.241215C0.9841 0.173523 1.15837 0.138672 1.33439 0.138672C1.51041 0.138672 1.68468 0.173523 1.84716 0.241215C2.00964 0.308906 2.15711 0.408098 2.28106 0.53307L8.38772 6.6664C8.51167 6.79137 8.65914 6.89057 8.82162 6.95826C8.9841 7.02595 9.15837 7.0608 9.33439 7.0608C9.51041 7.0608 9.68468 7.02595 9.84716 6.95826C10.0096 6.89057 10.1571 6.79137 10.2811 6.6664L16.3877 0.53307C16.637 0.281998 16.9759 0.140245 17.3297 0.138995C17.6835 0.137745 18.0233 0.277101 18.2744 0.526404C18.5255 0.775708 18.6672 1.11454 18.6685 1.46836C18.6697 1.82217 18.5304 2.162 18.2811 2.41307L12.1611 8.53307C11.4111 9.28214 10.3944 9.70288 9.33439 9.70288C8.27439 9.70288 7.25773 9.28214 6.50772 8.53307Z" fill="#1B5F8A"/>
</svg>
