<svg width="20" height="21" viewBox="0 0 20 21" fill="none" xmlns="http://www.w3.org/2000/svg">
<path fill-rule="evenodd" clip-rule="evenodd" d="M10 20.8993C11.3132 20.8993 12.6136 20.6406 13.8268 20.1381C15.0401 19.6355 16.1425 18.8989 17.0711 17.9704C17.9997 17.0418 18.7362 15.9394 19.2388 14.7261C19.7413 13.5129 20 12.2125 20 10.8993C20 9.58607 19.7413 8.28571 19.2388 7.07246C18.7362 5.8592 17.9997 4.75681 17.0711 3.82822C16.1425 2.89964 15.0401 2.16304 13.8268 1.6605C12.6136 1.15795 11.3132 0.899292 10 0.899292C7.34784 0.899292 4.8043 1.95286 2.92893 3.82822C1.05357 5.70359 0 8.24713 0 10.8993C0 13.5515 1.05357 16.095 2.92893 17.9704C4.8043 19.8457 7.34784 20.8993 10 20.8993ZM9.74222 14.9437L15.2978 8.27707L13.5911 6.85485L8.81333 12.5871L6.34111 10.1137L4.77 11.6848L8.10333 15.0182L8.96333 15.8782L9.74222 14.9437Z" fill="#04AC48"/>
</svg>
