<svg width="24" height="25" viewBox="0 0 24 25" fill="none" xmlns="http://www.w3.org/2000/svg">
<path d="M9.1 19.5C9.76304 19.5 10.3989 19.7634 10.8678 20.2322C11.3366 20.7011 11.6 21.337 11.6 22C11.6 22.663 11.3366 23.2989 10.8678 23.7678C10.3989 24.2366 9.76304 24.5 9.1 24.5C8.43696 24.5 7.80107 24.2366 7.33223 23.7678C6.86339 23.2989 6.6 22.663 6.6 22C6.6 21.337 6.86339 20.7011 7.33223 20.2322C7.80107 19.7634 8.43696 19.5 9.1 19.5ZM19.5 19.5C20.163 19.5 20.7989 19.7634 21.2678 20.2322C21.7366 20.7011 22 21.337 22 22C22 22.663 21.7366 23.2989 21.2678 23.7678C20.7989 24.2366 20.163 24.5 19.5 24.5C18.837 24.5 18.2011 24.2366 17.7322 23.7678C17.2634 23.2989 17 22.663 17 22C17 21.337 17.2634 20.7011 17.7322 20.2322C18.2011 19.7634 18.837 19.5 19.5 19.5ZM9.1 21.5C8.96739 21.5 8.84021 21.5527 8.74645 21.6464C8.65268 21.7402 8.6 21.8674 8.6 22C8.6 22.1326 8.65268 22.2598 8.74645 22.3536C8.84021 22.4473 8.96739 22.5 9.1 22.5C9.23261 22.5 9.35979 22.4473 9.45355 22.3536C9.54732 22.2598 9.6 22.1326 9.6 22C9.6 21.8674 9.54732 21.7402 9.45355 21.6464C9.35979 21.5527 9.23261 21.5 9.1 21.5ZM19.5 21.5C19.3674 21.5 19.2402 21.5527 19.1464 21.6464C19.0527 21.7402 19 21.8674 19 22C19 22.1326 19.0527 22.2598 19.1464 22.3536C19.2402 22.4473 19.3674 22.5 19.5 22.5C19.6326 22.5 19.7598 22.4473 19.8536 22.3536C19.9473 22.2598 20 22.1326 20 22C20 21.8674 19.9473 21.7402 19.8536 21.6464C19.7598 21.5527 19.6326 21.5 19.5 21.5ZM22 2.5C22.3213 2.50002 22.6379 2.57746 22.923 2.72577C23.208 2.87408 23.4531 3.08889 23.6376 3.35201C23.822 3.61513 23.9404 3.91882 23.9826 4.23737C24.0247 4.55591 23.9896 4.87993 23.88 5.182L23.788 5.394L19.788 13.394C19.6408 13.6884 19.4232 13.9419 19.1546 14.132C18.886 14.3221 18.5746 14.4431 18.248 14.484L18 14.5H10C9.87788 14.4998 9.75604 14.4884 9.636 14.466L8.618 16.5H21C21.2499 16.4995 21.4909 16.5927 21.6756 16.761C21.8602 16.9294 21.9752 17.1608 21.9978 17.4096C22.0203 17.6585 21.9489 17.9068 21.7976 18.1057C21.6462 18.3045 21.4259 18.4395 21.18 18.484L21 18.5H8.618C8.29691 18.4999 7.98058 18.4224 7.69574 18.2742C7.4109 18.126 7.16593 17.9114 6.98154 17.6486C6.79714 17.3857 6.67875 17.0823 6.63636 16.764C6.59397 16.4458 6.62883 16.122 6.738 15.82L6.83 15.606L8.072 13.118L4.212 5.394C4.17397 5.31878 4.14057 5.2413 4.112 5.162L2.78 2.5H1C0.765949 2.50008 0.539285 2.41806 0.359482 2.26822C0.179679 2.11839 0.0581292 1.91023 0.0160001 1.68L5.56206e-08 1.5C-7.79722e-05 1.26595 0.0819429 1.03929 0.231779 0.859482C0.381615 0.679679 0.589772 0.558129 0.82 0.516L1 0.5H3.4C3.55407 0.499918 3.70607 0.535434 3.84414 0.603779C3.98222 0.672123 4.10264 0.771447 4.196 0.894L4.296 1.054L5.018 2.5H22ZM22 4.5H6.018L9.894 12.252L9.96 12.42L10 12.5H18L22 4.5Z" fill="white"/>
</svg>
