<svg width="26" height="26" viewBox="0 0 26 26" fill="none" xmlns="http://www.w3.org/2000/svg">
<path d="M21.979 22.1385C23.1724 20.9483 24.1188 19.5338 24.7639 17.9764C25.409 16.4191 25.7397 14.7497 25.7378 13.064C25.7397 11.3784 25.409 9.70901 24.7639 8.15171C24.1188 6.59441 23.1724 5.17993 21.979 3.98956L19.9627 6.00578C20.8909 6.93168 21.627 8.03191 22.1287 9.24321C22.6303 10.4545 22.8876 11.753 22.8858 13.064C22.8875 14.3751 22.6301 15.6735 22.1285 16.8848C21.6269 18.0961 20.8908 19.1963 19.9627 20.1223L21.979 22.1385ZM16.3039 0.373456C16.5454 0.489831 16.7493 0.671956 16.8921 0.898956C17.0348 1.12596 17.1107 1.38861 17.1109 1.65676V24.4713C17.1105 24.7398 17.0345 25.0025 16.8914 25.2295C16.7484 25.4565 16.5442 25.6385 16.3023 25.7548C16.0605 25.8708 15.7908 25.9163 15.5241 25.886C15.2576 25.8558 15.0049 25.751 14.7952 25.5835L8.0564 20.1935H1.42591C1.04773 20.1935 0.68505 20.0433 0.41764 19.776C0.150229 19.5085 0 19.1459 0 18.7677V7.36041C0 6.98223 0.150229 6.61953 0.41764 6.35213C0.68505 6.08473 1.04773 5.93448 1.42591 5.93448H8.0564L14.7952 0.544556C15.005 0.376831 15.258 0.271781 15.5249 0.241506C15.7918 0.211231 16.0618 0.256981 16.3039 0.373456Z" fill="#FCDB40"/>
</svg>
