<svg width="198" height="37" viewBox="0 0 198 37" fill="none" xmlns="http://www.w3.org/2000/svg">
<path d="M16.229 6.73902C16.9182 4.61787 19.919 4.61787 20.6082 6.73902L22.0369 11.1361C22.3452 12.0847 23.2291 12.7269 24.2266 12.7269H28.8499C31.0802 12.7269 32.0075 15.5809 30.2032 16.8919L26.4628 19.6094C25.6559 20.1957 25.3182 21.2349 25.6265 22.1835L27.0551 26.5805C27.7444 28.7017 25.3166 30.4656 23.5122 29.1546L19.7719 26.4371C18.9649 25.8508 17.8723 25.8508 17.0653 26.4371L13.325 29.1546C11.5206 30.4656 9.09286 28.7017 9.78206 26.5805L11.2107 22.1835C11.519 21.2349 11.1813 20.1957 10.3744 19.6094L6.63403 16.8919C4.82966 15.5809 5.75698 12.7269 7.9873 12.7269H12.6106C13.6081 12.7269 14.4921 12.0847 14.8003 11.1361L16.229 6.73902Z" fill="#E1C025"/>
<path d="M56.5197 6.73902C57.2089 4.61787 60.2098 4.61787 60.899 6.73902L62.3276 11.1361C62.6359 12.0847 63.5199 12.7269 64.5173 12.7269H69.1406C71.3709 12.7269 72.2983 15.5809 70.4939 16.8919L66.7535 19.6094C65.9466 20.1957 65.6089 21.2349 65.9172 22.1835L67.3459 26.5805C68.0351 28.7017 65.6073 30.4656 63.8029 29.1546L60.0626 26.4371C59.2557 25.8508 58.163 25.8508 57.356 26.4371L53.6157 29.1546C51.8113 30.4656 49.3836 28.7017 50.0728 26.5805L51.5015 22.1835C51.8097 21.2349 51.472 20.1957 50.6651 19.6094L46.9247 16.8919C45.1204 15.5809 46.0477 12.7269 48.278 12.7269H52.9013C53.8988 12.7269 54.7828 12.0847 55.091 11.1361L56.5197 6.73902Z" fill="#E1C025"/>
<path d="M96.8104 6.73902C97.4996 4.61787 100.5 4.61787 101.19 6.73902L102.618 11.1361C102.927 12.0847 103.811 12.7269 104.808 12.7269H109.431C111.662 12.7269 112.589 15.5809 110.785 16.8919L107.044 19.6094C106.237 20.1957 105.9 21.2349 106.208 22.1835L107.637 26.5805C108.326 28.7017 105.898 30.4656 104.094 29.1546L100.353 26.4371C99.5464 25.8508 98.4537 25.8508 97.6468 26.4371L93.9064 29.1546C92.102 30.4656 89.6743 28.7017 90.3635 26.5805L91.7922 22.1835C92.1004 21.2349 91.7627 20.1957 90.9558 19.6094L87.2154 16.8919C85.4111 15.5809 86.3384 12.7269 88.5687 12.7269H93.1921C94.1895 12.7269 95.0735 12.0847 95.3817 11.1361L96.8104 6.73902Z" fill="#E1C025"/>
<path d="M137.101 6.73902C137.79 4.61787 140.791 4.61787 141.48 6.73902L142.909 11.1361C143.217 12.0847 144.101 12.7269 145.099 12.7269H149.722C151.952 12.7269 152.88 15.5809 151.075 16.8919L147.335 19.6094C146.528 20.1957 146.19 21.2349 146.499 22.1835L147.927 26.5805C148.616 28.7017 146.189 30.4656 144.384 29.1546L140.644 26.4371C139.837 25.8508 138.744 25.8508 137.937 26.4371L134.197 29.1546C132.393 30.4656 129.965 28.7017 130.654 26.5805L132.083 22.1835C132.391 21.2349 132.053 20.1957 131.246 19.6094L127.506 16.8919C125.702 15.5809 126.629 12.7269 128.859 12.7269H133.483C134.48 12.7269 135.364 12.0847 135.672 11.1361L137.101 6.73902Z" fill="#E1C025"/>
<path d="M177.392 6.73902C178.081 4.61787 181.082 4.61787 181.771 6.73902L183.2 11.1361C183.508 12.0847 184.392 12.7269 185.389 12.7269H190.013C192.243 12.7269 193.17 15.5809 191.366 16.8919L187.626 19.6094C186.819 20.1957 186.481 21.2349 186.789 22.1835L188.218 26.5805C188.907 28.7017 186.479 30.4656 184.675 29.1546L180.935 26.4371C180.128 25.8508 179.035 25.8508 178.228 26.4371L174.488 29.1546C172.683 30.4656 170.256 28.7017 170.945 26.5805L172.374 22.1835C172.682 21.2349 172.344 20.1957 171.537 19.6094L167.797 16.8919C165.992 15.5809 166.92 12.7269 169.15 12.7269H173.773C174.771 12.7269 175.655 12.0847 175.963 11.1361L177.392 6.73902Z" fill="#E1C025"/>
</svg>
